<svg width="28" height="28" viewBox="0 0 28 28"  xmlns="http://www.w3.org/2000/svg">
<rect width="28" height="28" rx="14" />
<path d="M17.6987 7.00291L15.7799 7C13.6242 7 12.231 8.35233 12.231 10.4454V12.034H10.3017C10.135 12.034 10 12.1619 10 12.3196V14.6213C10 14.779 10.1352 14.9067 10.3017 14.9067H12.231V20.7145C12.231 20.8723 12.366 21 12.5327 21H15.0499C15.2166 21 15.3517 20.8721 15.3517 20.7145V14.9067H17.6075C17.7742 14.9067 17.9092 14.779 17.9092 14.6213L17.9101 12.3196C17.9101 12.2439 17.8782 12.1713 17.8217 12.1177C17.7652 12.0641 17.6883 12.034 17.6082 12.034H15.3517V10.6873C15.3517 10.0401 15.5147 9.71151 16.4058 9.71151L17.6984 9.71107C17.865 9.71107 18 9.58319 18 9.4256V7.28838C18 7.13094 17.8652 7.0032 17.6987 7.00291Z" />
<rect  width="28" height="28" rx="14" />
<path fill="#fff" d="M17.6987 7.00291L15.7799 7C13.6242 7 12.231 8.35233 12.231 10.4454V12.034H10.3017C10.135 12.034 10 12.1619 10 12.3196V14.6213C10 14.779 10.1352 14.9067 10.3017 14.9067H12.231V20.7145C12.231 20.8723 12.366 21 12.5327 21H15.0499C15.2166 21 15.3517 20.8721 15.3517 20.7145V14.9067H17.6075C17.7742 14.9067 17.9092 14.779 17.9092 14.6213L17.9101 12.3196C17.9101 12.2439 17.8782 12.1713 17.8217 12.1177C17.7652 12.0641 17.6883 12.034 17.6082 12.034H15.3517V10.6873C15.3517 10.0401 15.5147 9.71151 16.4058 9.71151L17.6984 9.71107C17.865 9.71107 18 9.58319 18 9.4256V7.28838C18 7.13094 17.8652 7.0032 17.6987 7.00291Z" />
</svg>
