<svg width="230" height="48" viewBox="0 0 230 48"  xmlns="http://www.w3.org/2000/svg">
<path d="M224.287 38.6642H223.776V39.9607H223.035V40.383H223.776V42.8203C223.755 43.1324 223.773 43.4459 223.828 43.7538C223.924 44.1686 224.339 44.2427 224.71 44.2427C224.86 44.2548 225.011 44.2548 225.162 44.2427V43.7982H224.821C224.265 43.7982 224.28 43.5167 224.28 43.0574V40.383H225.154V39.9607H224.28V38.6642H224.287ZM216.323 43.3834V41.0719C216.323 40.2718 215.723 39.8496 214.76 39.8496C213.797 39.8496 213.093 40.3682 213.049 41.2794H213.545C213.544 41.1339 213.574 40.9897 213.633 40.857C213.693 40.7243 213.781 40.6062 213.891 40.5109C214.001 40.4157 214.13 40.3456 214.27 40.3056C214.41 40.2656 214.557 40.2566 214.701 40.2793C215.375 40.2793 215.805 40.4941 215.805 41.1979C215.805 41.4127 215.76 41.5313 215.657 41.6054C215.263 41.7607 214.843 41.8362 214.419 41.8276C213.367 41.9387 212.841 42.361 212.841 43.1389C212.841 43.9168 213.36 44.3242 214.227 44.3242C214.546 44.3388 214.862 44.2674 215.144 44.1175C215.425 43.9676 215.661 43.7447 215.827 43.4723C215.827 43.8575 215.879 44.2131 216.383 44.2131C216.524 44.2166 216.665 44.194 216.798 44.1464V43.7834C216.731 43.7945 216.664 43.7945 216.598 43.7834C216.323 43.813 216.323 43.6352 216.323 43.3834ZM215.812 42.5907C215.809 42.773 215.768 42.9528 215.692 43.1187C215.617 43.2847 215.508 43.4334 215.372 43.5556C215.237 43.6778 215.078 43.771 214.905 43.8293C214.732 43.8876 214.549 43.9098 214.368 43.8945C213.775 43.8945 213.397 43.5834 213.397 43.087C213.397 42.3906 214.138 42.2721 214.664 42.198C215.19 42.1239 215.657 42.0795 215.82 41.9017V42.5981L215.812 42.5907ZM209.656 39.8496C208.515 39.8496 207.715 40.7904 207.715 42.1388C207.715 43.4871 208.456 44.3613 209.663 44.3613C210.103 44.3813 210.535 44.2345 210.871 43.9502C211.208 43.6659 211.425 43.265 211.478 42.8277H210.975C210.938 43.1419 210.784 43.4307 210.543 43.6366C210.303 43.8425 209.994 43.9505 209.678 43.939C208.656 43.939 208.241 43.1167 208.241 42.2202H211.515V42.0721C211.515 40.9016 210.9 39.8496 209.648 39.8496H209.656ZM208.241 41.7906C208.337 40.9979 208.715 40.3089 209.634 40.3089C210.426 40.3089 210.938 40.8793 210.997 41.7906H208.241ZM228.429 42.8277C228.355 43.0278 228.303 43.2056 228.169 43.6352C228.006 43.1315 228.066 43.2722 227.918 42.8944L226.769 39.9755H226.199L227.91 44.1835C227.643 44.8873 227.51 45.391 226.999 45.391C226.873 45.3895 226.748 45.3696 226.628 45.3318V45.7837C226.778 45.8083 226.929 45.8207 227.08 45.8207C227.762 45.8207 227.962 45.3614 228.332 44.339L229.999 39.9385H229.473L228.421 42.8055L228.429 42.8277ZM188.424 43.3834V41.0719C188.424 40.2718 187.823 39.8496 186.86 39.8496C185.897 39.8496 185.193 40.3682 185.149 41.2794H185.645C185.644 41.1339 185.674 40.9897 185.733 40.857C185.793 40.7243 185.881 40.6062 185.991 40.5109C186.101 40.4157 186.231 40.3456 186.37 40.3056C186.51 40.2656 186.657 40.2566 186.801 40.2793C187.475 40.2793 187.905 40.4941 187.905 41.1979C187.905 41.4127 187.861 41.5313 187.757 41.6054C187.363 41.7607 186.943 41.8362 186.52 41.8276C185.468 41.9387 184.942 42.361 184.942 43.1389C184.942 43.9168 185.46 44.3242 186.327 44.3242C186.646 44.3388 186.962 44.2674 187.244 44.1175C187.525 43.9676 187.761 43.7447 187.927 43.4723C187.927 43.8575 187.979 44.2131 188.483 44.2131C188.624 44.2166 188.765 44.194 188.898 44.1464V43.7834C188.831 43.7945 188.764 43.7945 188.698 43.7834C188.409 43.7834 188.416 43.613 188.416 43.3537L188.424 43.3834ZM187.912 42.5907C187.908 42.7727 187.866 42.9519 187.79 43.1174C187.714 43.2828 187.605 43.4311 187.47 43.5531C187.335 43.6751 187.177 43.7683 187.004 43.827C186.832 43.8857 186.649 43.9087 186.468 43.8945C185.875 43.8945 185.497 43.5834 185.497 43.087C185.497 42.3906 186.238 42.2721 186.764 42.198C187.29 42.1239 187.757 42.0795 187.92 41.9017V42.5981L187.912 42.5907ZM221.117 42.3091C221.141 42.5009 221.126 42.6957 221.072 42.8812C221.017 43.0667 220.924 43.2388 220.8 43.3866C220.675 43.5343 220.521 43.6545 220.347 43.7394C220.173 43.8243 219.984 43.8721 219.791 43.8797C218.976 43.8797 218.716 43.3982 218.716 42.5684V39.9607H218.198V42.7833C218.17 42.987 218.189 43.1944 218.252 43.3899C218.316 43.5854 218.423 43.764 218.566 43.9122C218.708 44.0604 218.883 44.1745 219.075 44.2458C219.268 44.3172 219.475 44.344 219.679 44.3242C219.989 44.3382 220.296 44.2588 220.56 44.0963C220.824 43.9339 221.034 43.6958 221.161 43.413V44.1983H221.643V39.9607H221.131V42.3017L221.117 42.3091ZM197.336 41.6054H196.847C196.829 41.9347 196.762 42.2594 196.647 42.5684L195.41 41.0423C195.719 40.907 195.988 40.694 196.19 40.424C196.393 40.154 196.522 39.8361 196.565 39.5014C196.563 39.3391 196.527 39.1792 196.46 39.0313C196.393 38.8835 196.297 38.7509 196.177 38.6419C196.057 38.5329 195.915 38.4497 195.762 38.3974C195.608 38.3452 195.445 38.3251 195.284 38.3383C195.118 38.3218 194.951 38.3399 194.793 38.3914C194.635 38.443 194.489 38.5267 194.366 38.6375C194.242 38.7482 194.142 38.8835 194.073 39.0348C194.004 39.186 193.967 39.35 193.965 39.5162C194.049 40.0589 194.309 40.5588 194.706 40.9386C194.317 41.0714 193.973 41.3093 193.712 41.6257C193.45 41.9422 193.281 42.3249 193.224 42.7314C193.225 42.9544 193.273 43.1746 193.364 43.3782C193.454 43.5818 193.586 43.7643 193.752 43.9141C193.917 44.0639 194.111 44.1777 194.323 44.2483C194.534 44.3189 194.758 44.3448 194.98 44.3242C195.324 44.3363 195.664 44.256 195.967 44.0919C196.269 43.9277 196.522 43.6856 196.699 43.3908L197.365 44.2057H198.025L196.988 42.9685C197.197 42.5456 197.318 42.0842 197.343 41.6128L197.336 41.6054ZM194.454 39.5088C194.453 39.4049 194.475 39.3021 194.517 39.2071C194.558 39.112 194.62 39.0268 194.696 38.9569C194.773 38.887 194.864 38.8341 194.963 38.8016C195.061 38.769 195.166 38.7576 195.269 38.768C195.371 38.7598 195.474 38.7728 195.571 38.8064C195.667 38.8399 195.756 38.8932 195.831 38.9628C195.907 39.0324 195.967 39.1169 196.007 39.2109C196.048 39.3049 196.069 39.4063 196.069 39.5088C196.069 40.0644 195.565 40.4348 195.128 40.6793C194.891 40.3237 194.461 40.0051 194.461 39.5088H194.454ZM195.032 43.8945C194.871 43.9025 194.709 43.8785 194.558 43.8238C194.406 43.7692 194.266 43.6851 194.147 43.5762C194.028 43.4674 193.932 43.3361 193.863 43.1898C193.795 43.0436 193.757 42.8852 193.75 42.724C193.75 41.9832 194.417 41.6202 194.965 41.2423L196.41 43.0129C196.275 43.2632 196.077 43.4737 195.835 43.6232C195.593 43.7728 195.316 43.8561 195.032 43.8649V43.8945ZM204.47 39.8348C204.158 39.8247 203.85 39.9082 203.586 40.0745C203.322 40.2409 203.114 40.4825 202.988 40.7682V38.3309H202.485V44.2057H202.951V43.3834C203.066 43.6855 203.277 43.9416 203.551 44.1128C203.825 44.284 204.148 44.3609 204.47 44.3316C205.648 44.3316 206.396 43.4649 206.396 42.1091C206.396 40.7534 205.596 39.8348 204.47 39.8348ZM204.403 43.9168C203.514 43.9168 202.922 43.1759 202.922 42.0943C202.922 41.0127 203.485 40.2793 204.403 40.2793C205.322 40.2793 205.848 40.9831 205.848 42.0943C205.848 43.2056 205.211 43.9094 204.374 43.9094L204.403 43.9168ZM176.466 41.7832C175.666 41.6054 175.251 41.509 175.251 40.9831C175.251 40.4571 175.629 40.2793 176.244 40.2793C176.859 40.2793 177.341 40.5608 177.392 41.2053H177.896C177.896 40.2941 177.23 39.8496 176.296 39.8496C175.363 39.8496 174.733 40.3015 174.733 41.0423C174.733 41.9758 175.674 42.0869 176.37 42.2499C176.815 42.361 177.533 42.4869 177.533 43.087C177.533 43.6871 177.059 43.9094 176.318 43.9094C175.577 43.9094 175.066 43.5315 175.066 42.8203H174.562C174.562 43.7908 175.214 44.339 176.303 44.339C177.392 44.339 177.985 43.813 177.985 43.0352C177.985 42.2573 177.104 41.9387 176.407 41.7832H176.466ZM181.652 39.8422C181.335 39.8189 181.018 39.893 180.744 40.0545C180.47 40.216 180.252 40.4572 180.119 40.746V39.9311H179.652V45.7614H180.156V43.3908C180.283 43.6743 180.492 43.9134 180.756 44.0771C181.02 44.2408 181.327 44.3218 181.637 44.3094C182.778 44.3094 183.534 43.4204 183.534 42.0869C183.534 40.7534 182.793 39.8273 181.623 39.8273L181.652 39.8422ZM181.6 43.9019C180.711 43.9019 180.119 43.2056 180.119 42.0943C180.119 40.9831 180.667 40.2718 181.556 40.2718C182.445 40.2718 183.038 41.0127 183.038 42.1017C183.038 43.1907 182.467 43.9019 181.6 43.9019ZM202.788 29.6334H205.655V8.5122L202.774 8.04547L202.788 29.6334ZM226.873 16.2243C226.344 15.6786 225.709 15.2472 225.007 14.9566C224.305 14.6661 223.551 14.5227 222.791 14.5352H218.464V15.9798H222.791C223.212 15.9968 223.622 16.1224 223.98 16.3444C224.338 16.5663 224.633 16.8772 224.836 17.2467C225.15 17.7207 225.376 18.2478 225.502 18.8024C224.622 18.338 223.637 18.1088 222.642 18.1369C221.648 18.1651 220.677 18.4496 219.824 18.9631C218.972 19.4765 218.267 20.2014 217.776 21.0675C217.286 21.9336 217.028 22.9116 217.027 23.9068C217.027 25.4364 217.635 26.9034 218.716 27.9849C219.798 29.0665 221.265 29.6742 222.795 29.6742C224.324 29.6742 225.791 29.0665 226.873 27.9849C227.954 26.9034 228.562 25.4364 228.562 23.9068V20.2989C228.575 19.5392 228.431 18.7849 228.141 18.0828C227.85 17.3807 227.419 16.7456 226.873 16.2169V16.2243ZM224.836 26.959C224.648 27.3404 224.358 27.6616 223.997 27.8862C223.636 28.1108 223.22 28.2299 222.795 28.2299C222.37 28.2299 221.953 28.1108 221.592 27.8862C221.232 27.6616 220.941 27.3404 220.754 26.959C220.173 26.0492 219.878 24.9858 219.909 23.9068C219.881 22.8237 220.181 21.7574 220.768 20.8471C220.956 20.4658 221.247 20.1446 221.607 19.92C221.968 19.6953 222.385 19.5763 222.809 19.5763C223.234 19.5763 223.651 19.6953 224.012 19.92C224.372 20.1446 224.663 20.4658 224.85 20.8471C225.432 21.7569 225.726 22.8203 225.695 23.8994C225.721 24.9832 225.419 26.0496 224.828 26.959H224.836ZM185.645 14.5352H181.319V15.9798H185.645C186.067 15.9968 186.476 16.1224 186.834 16.3444C187.193 16.5663 187.487 16.8772 187.69 17.2467C188.004 17.7207 188.23 18.2478 188.357 18.8024C187.477 18.338 186.492 18.1088 185.497 18.1369C184.502 18.1651 183.531 18.4496 182.679 18.9631C181.826 19.4765 181.121 20.2014 180.631 21.0675C180.141 21.9336 179.883 22.9116 179.882 23.9068C179.882 25.4364 180.489 26.9034 181.571 27.9849C182.653 29.0665 184.119 29.6742 185.649 29.6742C187.179 29.6742 188.646 29.0665 189.727 27.9849C190.809 26.9034 191.417 25.4364 191.417 23.9068V20.2989C191.417 19.5417 191.269 18.7918 190.98 18.0921C190.69 17.3923 190.266 16.7566 189.731 16.2212C189.195 15.6858 188.559 15.2613 187.86 14.9719C187.16 14.6826 186.41 14.5342 185.653 14.5352H185.645ZM187.683 26.959C187.495 27.3404 187.205 27.6616 186.844 27.8862C186.483 28.1108 186.067 28.2299 185.642 28.2299C185.217 28.2299 184.8 28.1108 184.44 27.8862C184.079 27.6616 183.788 27.3404 183.601 26.959C183.02 26.0492 182.725 24.9858 182.756 23.9068C182.725 22.8277 183.02 21.7643 183.601 20.8545C183.788 20.4732 184.079 20.152 184.44 19.9274C184.8 19.7027 185.217 19.5837 185.642 19.5837C186.067 19.5837 186.483 19.7027 186.844 19.9274C187.205 20.152 187.495 20.4732 187.683 20.8545C188.264 21.7643 188.558 22.8277 188.527 23.9068C188.556 24.9866 188.259 26.0501 187.675 26.959H187.683ZM60.0811 24.3735L57.1992 23.9068V25.707H60.0811V24.3735ZM145.603 29.6334V20.2989C145.606 19.1585 145.271 18.0429 144.639 17.0936C144.007 16.1443 143.108 15.404 142.054 14.9667C141.001 14.5294 139.842 14.4147 138.723 14.6373C137.605 14.8599 136.578 15.4097 135.772 16.2169L135.513 16.4762L135.269 16.2169C134.461 15.4118 133.433 14.864 132.315 14.6426C131.196 14.4212 130.037 14.5361 128.984 14.9728C127.93 15.4095 127.03 16.1484 126.396 17.0963C125.763 18.0442 125.424 19.1587 125.423 20.2989V29.6334H128.305V20.2989C128.274 19.2198 128.568 18.1564 129.149 17.2467C129.337 16.8653 129.627 16.5441 129.988 16.3195C130.349 16.0949 130.765 15.9758 131.19 15.9758C131.615 15.9758 132.032 16.0949 132.392 16.3195C132.753 16.5441 133.044 16.8653 133.231 17.2467C133.817 18.1548 134.117 19.2183 134.091 20.2989V29.6334H136.972V20.2989C136.935 19.2221 137.222 18.1589 137.795 17.2467C137.982 16.8653 138.273 16.5441 138.634 16.3195C138.994 16.0949 139.411 15.9758 139.836 15.9758C140.261 15.9758 140.677 16.0949 141.038 16.3195C141.399 16.5441 141.689 16.8653 141.877 17.2467C142.458 18.1564 142.752 19.2198 142.721 20.2989V29.6334H145.603ZM168.502 20.2989C168.5 19.2881 168.232 18.2958 167.725 17.421C167.219 16.5461 166.492 15.8194 165.617 15.3133C164.742 14.8072 163.75 14.5395 162.739 14.5369C161.728 14.5342 160.734 14.7968 159.857 15.2983V8.04547L156.975 8.5122V23.9068C156.975 25.4364 157.583 26.9034 158.664 27.9849C159.746 29.0665 161.213 29.6742 162.742 29.6742C164.272 29.6742 165.739 29.0665 166.821 27.9849C167.902 26.9034 168.51 25.4364 168.51 23.9068V20.2989H168.502ZM165.621 23.8994C165.651 24.9784 165.357 26.0418 164.776 26.9516C164.588 27.331 164.297 27.6503 163.937 27.8735C163.577 28.0967 163.162 28.215 162.739 28.215C162.315 28.215 161.9 28.0967 161.54 27.8735C161.18 27.6503 160.89 27.331 160.701 26.9516C160.12 26.0418 159.826 24.9784 159.857 23.8994V20.2989C159.826 19.2198 160.12 18.1564 160.701 17.2467C160.89 16.8673 161.18 16.548 161.54 16.3248C161.9 16.1016 162.315 15.9833 162.739 15.9833C163.162 15.9833 163.577 16.1016 163.937 16.3248C164.297 16.548 164.588 16.8673 164.776 17.2467C165.357 18.1564 165.651 19.2198 165.621 20.2989V23.8994ZM108.295 14.5352H103.968V15.9798H108.295C108.716 15.9968 109.125 16.1224 109.484 16.3444C109.842 16.5663 110.137 16.8772 110.339 17.2467C110.653 17.7209 110.879 18.2479 111.006 18.8024C110.126 18.338 109.141 18.1088 108.146 18.1369C107.151 18.1651 106.181 18.4496 105.328 18.9631C104.476 19.4765 103.77 20.2014 103.28 21.0675C102.79 21.9336 102.532 22.9116 102.531 23.9068C102.531 25.4364 103.139 26.9034 104.22 27.9849C105.302 29.0665 106.769 29.6742 108.298 29.6742C109.828 29.6742 111.295 29.0665 112.377 27.9849C113.458 26.9034 114.066 25.4364 114.066 23.9068V20.2989C114.067 19.5417 113.918 18.7918 113.629 18.0921C113.34 17.3923 112.915 16.7566 112.38 16.2212C111.844 15.6858 111.209 15.2613 110.509 14.9719C109.809 14.6826 109.059 14.5342 108.302 14.5352H108.295ZM110.332 26.959C110.144 27.3404 109.854 27.6616 109.493 27.8862C109.132 28.1108 108.716 28.2299 108.291 28.2299C107.866 28.2299 107.45 28.1108 107.089 27.8862C106.728 27.6616 106.437 27.3404 106.25 26.959C105.67 26.0489 105.376 24.9857 105.405 23.9068C105.376 22.8278 105.67 21.7647 106.25 20.8545C106.437 20.4732 106.728 20.152 107.089 19.9274C107.45 19.7027 107.866 19.5837 108.291 19.5837C108.716 19.5837 109.132 19.7027 109.493 19.9274C109.854 20.152 110.144 20.4732 110.332 20.8545C110.913 21.7645 111.207 22.8278 111.177 23.9068C111.207 24.9858 110.913 26.049 110.332 26.959ZM85.3954 14.5352C84.3852 14.5144 83.3886 14.7706 82.5136 15.276V8.04547L79.6317 8.5122V29.6334H82.5136V20.2989C82.4833 19.2199 82.7775 18.1566 83.3581 17.2467C83.5456 16.8653 83.8362 16.5441 84.197 16.3195C84.5577 16.0949 84.9742 15.9758 85.3992 15.9758C85.8241 15.9758 86.2406 16.0949 86.6013 16.3195C86.9621 16.5441 87.2526 16.8653 87.4402 17.2467C88.0208 18.1566 88.315 19.2199 88.2847 20.2989V29.6334H91.1221V20.2989C91.1221 18.7703 90.5149 17.3043 89.434 16.2233C88.3531 15.1424 86.887 14.5352 85.3584 14.5352H85.3954ZM62.9703 14.5352C59.7847 14.5352 57.2066 16.4095 57.2066 18.7283C57.2066 21.0471 59.7847 22.9215 62.9629 22.9215C63.4726 22.962 63.9599 23.1486 64.3662 23.4589C64.7726 23.7692 65.0809 24.1901 65.2543 24.6712C65.4276 25.1522 65.4585 25.6731 65.3435 26.1713C65.2284 26.6695 64.9721 27.1239 64.6054 27.4802C64.2387 27.8365 63.777 28.0796 63.2757 28.1802C62.7744 28.2809 62.2547 28.2349 61.7788 28.0478C61.303 27.8607 60.8912 27.5404 60.5927 27.1252C60.2942 26.7101 60.1217 26.2177 60.0959 25.707H57.214C57.377 27.9295 59.8885 29.6705 62.9629 29.6705C66.0374 29.6705 68.7266 27.7962 68.7266 25.4773C68.7266 23.1585 66.1485 21.2842 62.9703 21.2842C62.2383 21.3103 61.5257 21.0463 60.9873 20.5496C60.449 20.0529 60.1286 19.3637 60.0959 18.632C60.1685 17.9307 60.4951 17.2801 61.0142 16.8029C61.5332 16.3256 62.2088 16.0547 62.9138 16.041C63.6187 16.0273 64.3044 16.2719 64.8415 16.7287C65.3786 17.1855 65.7302 17.8229 65.83 18.5209V19.8544L68.7118 20.3211V18.5209C68.5414 16.2984 66.0374 14.5574 62.9629 14.5574L62.9703 14.5352Z" />
<path d="M16.6688 43.213C16.7293 43.0542 16.7413 42.8811 16.7035 42.7155C16.6656 42.55 16.5795 42.3993 16.4561 42.2826C16.3326 42.1659 16.1774 42.0884 16.0099 42.0599C15.8425 42.0314 15.6703 42.0532 15.5152 42.1225C15.3601 42.1917 15.2291 42.3054 15.1385 42.4492C15.048 42.5929 15.0021 42.7602 15.0066 42.93C15.0112 43.0998 15.0659 43.2645 15.164 43.4032C15.262 43.5419 15.399 43.6484 15.5576 43.7093C15.6631 43.7499 15.7756 43.7692 15.8886 43.7662C16.0016 43.7632 16.113 43.7379 16.2162 43.6918C16.3194 43.6457 16.4125 43.5796 16.4902 43.4975C16.5679 43.4153 16.6286 43.3186 16.6688 43.213ZM40.6349 24.1068C40.7697 24.1068 40.9014 24.0668 41.0135 23.9919C41.1256 23.9171 41.213 23.8106 41.2645 23.6861C41.3161 23.5615 41.3296 23.4245 41.3033 23.2923C41.277 23.1601 41.2121 23.0386 41.1168 22.9433C41.0215 22.848 40.9 22.7831 40.7678 22.7568C40.6356 22.7305 40.4986 22.744 40.374 22.7956C40.2495 22.8471 40.1431 22.9345 40.0682 23.0466C39.9933 23.1587 39.9533 23.2904 39.9533 23.4252C39.9533 23.5147 39.9709 23.6034 40.0052 23.6861C40.0394 23.7688 40.0896 23.8439 40.1529 23.9072C40.2162 23.9705 40.2913 24.0207 40.374 24.0549C40.4567 24.0892 40.5454 24.1068 40.6349 24.1068ZM31.6633 4.76358C31.8205 4.82871 31.9935 4.8457 32.1604 4.81241C32.3273 4.77911 32.4805 4.69703 32.6007 4.57656C32.7209 4.45609 32.8026 4.30265 32.8354 4.1357C32.8683 3.96874 32.8509 3.79579 32.7854 3.63875C32.7199 3.48171 32.6092 3.34765 32.4674 3.25357C32.3256 3.15949 32.1591 3.10962 31.9889 3.11028C31.8188 3.11094 31.6526 3.16211 31.5116 3.25728C31.3705 3.35246 31.2609 3.48737 31.1966 3.64491C31.1108 3.85521 31.1117 4.09093 31.1992 4.30055C31.2866 4.51017 31.4535 4.67664 31.6633 4.76358ZM4.14868 16.165C4.3046 16.2334 4.47731 16.254 4.64491 16.224C4.81251 16.1941 4.96744 16.1151 5.09005 15.9969C5.21266 15.8788 5.29743 15.727 5.33359 15.5606C5.36976 15.3942 5.35569 15.2209 5.29318 15.0625C5.23067 14.9041 5.12253 14.7679 4.98249 14.6711C4.84244 14.5743 4.67679 14.5213 4.50656 14.5188C4.33633 14.5162 4.16918 14.5643 4.02633 14.657C3.88348 14.7496 3.77135 14.8825 3.70418 15.039C3.61471 15.2473 3.61123 15.4826 3.69449 15.6936C3.77775 15.9045 3.94101 16.074 4.14868 16.165ZM32.3227 43.7093C32.4802 43.645 32.6151 43.5354 32.7103 43.3944C32.8055 43.2533 32.8567 43.0872 32.8573 42.917C32.858 42.7469 32.8081 42.5803 32.714 42.4385C32.6199 42.2968 32.4859 42.1861 32.3288 42.1206C32.1718 42.0551 31.9988 42.0376 31.8319 42.0705C31.6649 42.1034 31.5115 42.1851 31.391 42.3053C31.2706 42.4254 31.1885 42.5787 31.1552 42.7455C31.1219 42.9124 31.1389 43.0854 31.204 43.2426C31.291 43.4524 31.4574 43.6193 31.667 43.7068C31.8767 43.7943 32.1124 43.7952 32.3227 43.7093ZM16.2021 4.76358C16.3596 4.69928 16.4945 4.58966 16.5897 4.4486C16.6849 4.30755 16.7361 4.14142 16.7367 3.97126C16.7374 3.8011 16.6875 3.63457 16.5934 3.49279C16.4993 3.351 16.3653 3.24033 16.2083 3.17481C16.0512 3.10929 15.8783 3.09187 15.7113 3.12475C15.5443 3.15763 15.3909 3.23933 15.2704 3.3595C15.15 3.47967 15.0679 3.6329 15.0346 3.79978C15.0013 3.96665 15.0183 4.13965 15.0834 4.29685C15.1704 4.50669 15.3368 4.67357 15.5465 4.76103C15.7561 4.84849 15.9918 4.8494 16.2021 4.76358ZM43.7093 16.165C43.8669 16.1007 44.0018 15.9911 44.097 15.8501C44.1921 15.709 44.2433 15.5429 44.244 15.3727C44.2446 15.2026 44.1948 15.036 44.1007 14.8943C44.0066 14.7525 43.8725 14.6418 43.7155 14.5763C43.5585 14.5108 43.3855 14.4933 43.2185 14.5262C43.0516 14.5591 42.8982 14.6408 42.7777 14.761C42.6572 14.8811 42.5751 15.0344 42.5418 15.2012C42.5085 15.3681 42.5255 15.5411 42.5907 15.6983C42.6776 15.9082 42.8441 16.075 43.0537 16.1625C43.2633 16.25 43.499 16.2509 43.7093 16.165ZM4.80803 32.2782C4.96728 32.2155 5.10419 32.1067 5.20122 31.9658C5.29824 31.8248 5.35096 31.658 5.35261 31.4869C5.35427 31.3157 5.30479 31.148 5.21051 31.0052C5.11623 30.8623 4.98145 30.7509 4.82343 30.6852C4.66542 30.6194 4.49137 30.6023 4.3236 30.6361C4.15582 30.6699 4.00195 30.753 3.88172 30.8748C3.76148 30.9966 3.68035 31.1516 3.64872 31.3197C3.61709 31.4879 3.6364 31.6618 3.70418 31.8189C3.79112 32.0288 3.95759 32.1956 4.16721 32.2831C4.37683 32.3706 4.61255 32.3715 4.82284 32.2856L4.80803 32.2782ZM32.1152 23.1437C32.0493 23.1437 31.9849 23.1633 31.93 23.1999C31.8752 23.2365 31.8325 23.2886 31.8072 23.3495C31.782 23.4104 31.7754 23.4775 31.7883 23.5421C31.8011 23.6068 31.8329 23.6662 31.8795 23.7128C31.9261 23.7595 31.9855 23.7912 32.0502 23.8041C32.1149 23.8169 32.1819 23.8103 32.2428 23.7851C32.3037 23.7599 32.3558 23.7171 32.3924 23.6623C32.4291 23.6075 32.4486 23.543 32.4486 23.4771C32.4486 23.3887 32.4135 23.3039 32.351 23.2414C32.2885 23.1788 32.2037 23.1437 32.1152 23.1437ZM33.8044 19.3432C33.8389 19.4255 33.897 19.4958 33.9714 19.5451C34.0458 19.5944 34.1332 19.6205 34.2224 19.6203C34.3117 19.62 34.3989 19.5933 34.473 19.5435C34.5471 19.4938 34.6048 19.4232 34.6388 19.3407C34.6729 19.2582 34.6817 19.1674 34.6642 19.0799C34.6468 18.9924 34.6038 18.912 34.5406 18.8489C34.4775 18.7857 34.3972 18.7427 34.3096 18.7252C34.2221 18.7077 34.1314 18.7165 34.0488 18.7506C33.9937 18.7733 33.9437 18.8067 33.9015 18.8488C33.8594 18.8909 33.826 18.941 33.8033 18.996C33.7806 19.0511 33.769 19.1102 33.7692 19.1697C33.7693 19.2293 33.7813 19.2883 33.8044 19.3432ZM36.2195 12.1053C36.3149 12.01 36.3799 11.8885 36.4063 11.7563C36.4327 11.6241 36.4193 11.487 36.3677 11.3624C36.3162 11.2378 36.2288 11.1312 36.1167 11.0563C36.0046 10.9814 35.8728 10.9414 35.7379 10.9414C35.6031 10.9414 35.4713 10.9814 35.3592 11.0563C35.2471 11.1312 35.1597 11.2378 35.1081 11.3624C35.0566 11.487 35.0432 11.6241 35.0695 11.7563C35.0959 11.8885 35.161 12.01 35.2564 12.1053C35.3842 12.2328 35.5574 12.3045 35.7379 12.3045C35.9185 12.3045 36.0917 12.2328 36.2195 12.1053ZM23.9364 7.40836C24.0712 7.40836 24.203 7.36839 24.3151 7.2935C24.4272 7.2186 24.5145 7.11216 24.5661 6.98762C24.6177 6.86308 24.6312 6.72604 24.6049 6.59382C24.5786 6.46161 24.5137 6.34017 24.4184 6.24485C24.323 6.14953 24.2016 6.08462 24.0694 6.05832C23.9372 6.03202 23.8001 6.04552 23.6756 6.09711C23.5511 6.14869 23.4446 6.23605 23.3697 6.34813C23.2948 6.46022 23.2548 6.59199 23.2548 6.72679C23.2548 6.90756 23.3267 7.08092 23.4545 7.20873C23.5823 7.33655 23.7557 7.40836 23.9364 7.40836ZM12.5942 12.1053C12.6896 12.01 12.7547 11.8885 12.7811 11.7563C12.8075 11.6241 12.794 11.487 12.7425 11.3624C12.6909 11.2378 12.6036 11.1312 12.4914 11.0563C12.3793 10.9814 12.2475 10.9414 12.1127 10.9414C11.9778 10.9414 11.846 10.9814 11.7339 11.0563C11.6218 11.1312 11.5344 11.2378 11.4829 11.3624C11.4313 11.487 11.4179 11.6241 11.4443 11.7563C11.4707 11.8885 11.5357 12.01 11.6311 12.1053C11.7589 12.2328 11.9321 12.3045 12.1127 12.3045C12.2932 12.3045 12.4664 12.2328 12.5942 12.1053ZM29.4482 29.0111C29.402 29.0579 29.3706 29.1173 29.3581 29.1819C29.3455 29.2465 29.3523 29.3133 29.3777 29.374C29.403 29.4347 29.4457 29.4865 29.5005 29.523C29.5552 29.5595 29.6195 29.5789 29.6853 29.5789C29.7511 29.5789 29.8154 29.5595 29.8701 29.523C29.9249 29.4865 29.9676 29.4347 29.9929 29.374C30.0183 29.3133 30.0251 29.2465 30.0125 29.1819C30 29.1173 29.9686 29.0579 29.9224 29.0111C29.8914 28.9798 29.8545 28.9549 29.8138 28.9379C29.7731 28.9209 29.7294 28.9122 29.6853 28.9122C29.6412 28.9122 29.5975 28.9209 29.5569 28.9379C29.5162 28.9549 29.4792 28.9798 29.4482 29.0111ZM32.056 20.3285C33.2265 19.1803 31.7226 17.0985 32.3819 15.5946C30.804 16.0984 28.4333 14.7056 27.1961 15.7057C27.1146 13.424 24.3661 13.8018 23.8623 11.9423C23.3882 13.8685 20.7879 13.6684 20.5286 15.8169C19.2469 14.3352 17.2393 16.1947 15.5798 15.4909C15.7502 17.4022 14.6241 19.3951 15.9058 20.5434C13.4091 20.4174 13.8981 23.2623 12.0312 23.7734C13.7944 24.3735 13.5129 27.0405 15.9058 27.0035C14.7352 28.1592 16.0539 30.1668 15.5798 31.8411C17.3282 31.4559 19.158 32.8709 20.6323 31.8411C20.9508 33.8562 23.4401 33.6932 23.966 35.5009C24.3439 33.6191 26.9294 33.9155 27.2998 32.056C28.8407 32.9376 30.7151 31.5226 32.3597 31.8411C31.856 30.3595 33.3747 27.9592 32.0338 27.0035C34.3526 26.959 34.1229 24.3587 35.7972 23.6697C33.8858 23.2104 34.1377 20.6027 32.0338 20.336L32.056 20.3285ZM31.73 16.2391C31.8263 17.8764 32.7227 20.3137 30.7595 20.5434C29.6334 19.2617 28.7741 17.6615 26.8924 17.0985C27.485 15.0908 29.8409 15.9947 31.7374 16.2391H31.73ZM23.8771 12.9054C24.6698 13.8314 26.0997 14.1426 26.7812 15.1279C26.8363 15.72 26.7233 16.3157 26.4553 16.8466C25.1292 16.2021 22.6474 16.3206 21.2694 16.8466C20.2471 14.4463 23.0326 14.1352 23.8475 12.8683L23.8771 12.9054ZM16.1354 16.1354C17.6615 16.0243 20.4249 14.9945 20.8694 17.1059C19.3067 17.8357 18.0506 19.0919 17.3207 20.6545C15.1723 20.4397 15.765 17.9134 16.1354 16.1354ZM13.0165 23.6623C14.1796 22.6622 14.4315 20.2248 17.1059 21.0842C16.4996 22.7536 16.4605 24.5763 16.9948 26.2701C14.7056 27.4035 13.9055 24.9514 13.0165 23.6919V23.6623ZM19.8989 31.73C18.3431 31.8856 17.5356 31.3003 16.1354 31.3003C16.1873 29.6557 15.202 27.2331 17.1059 26.6775C18.069 28.1592 19.1062 29.6409 20.8694 30.3372C20.7345 30.9099 20.3878 31.4102 19.8989 31.7374V31.73ZM26.7812 32.3745C26.1589 33.3302 24.6773 33.4265 24.092 34.4193C22.9363 33.4488 20.3878 32.9376 21.299 30.5447C22.972 31.1314 24.7883 31.1703 26.4849 30.6558C26.7815 31.1766 26.8962 31.7813 26.8109 32.3745H26.7812ZM23.0178 30.5447C22.0952 30.4366 21.2044 30.1414 20.4 29.6769C19.5955 29.2125 18.8944 28.5887 18.3395 27.8438C17.7846 27.0989 17.3877 26.2485 17.173 25.3448C16.9584 24.441 16.9305 23.503 17.0911 22.5881C17.3309 21.1357 18.0405 19.8021 19.111 18.7918C20.1816 17.7815 21.554 17.1502 23.0178 16.9948C23.9856 16.8304 24.9777 16.8799 25.9244 17.1397C26.8711 17.3996 27.7494 17.8635 28.4977 18.4988C29.2461 19.1342 29.8463 19.9257 30.2562 20.8177C30.6661 21.7097 30.8758 22.6806 30.8706 23.6623C30.8892 24.6568 30.6906 25.6433 30.2887 26.5532C29.8868 27.463 29.2913 28.2742 28.5436 28.9301C27.7959 29.5861 26.9141 30.0711 25.9598 30.3512C25.0054 30.6313 24.0014 30.6999 23.0178 30.5521V30.5447ZM31.6263 31.4115C29.789 31.4115 27.3739 32.8413 27.0035 30.5521C28.4851 29.5445 29.8927 28.4926 30.6632 26.7886C32.7746 27.2776 32.1745 29.6334 31.6263 31.4115ZM34.8193 23.7734C34.8193 24.055 32.945 26.4775 32.456 26.5738C31.7152 26.7146 31.3596 26.3738 30.841 26.2478C31.4115 24.8551 31.4411 22.351 30.7299 21.062C32.456 20.2248 33.1895 21.5065 33.8488 22.5436C33.997 22.7733 34.8119 23.6475 34.8193 23.729V23.7734ZM23.9364 39.4495C23.8016 39.4495 23.6698 39.4895 23.5578 39.5644C23.4457 39.6393 23.3583 39.7457 23.3067 39.8703C23.2551 39.9948 23.2416 40.1319 23.2679 40.2641C23.2942 40.3963 23.3592 40.5177 23.4545 40.613C23.5498 40.7084 23.6712 40.7733 23.8034 40.7996C23.9357 40.8259 24.0727 40.8124 24.1972 40.7608C24.3218 40.7092 24.4282 40.6218 24.5031 40.5098C24.578 40.3977 24.618 40.2659 24.618 40.1311C24.618 39.9503 24.5462 39.777 24.4184 39.6492C24.2905 39.5213 24.1172 39.4495 23.9364 39.4495ZM40.2867 30.3224C44.9613 30.2335 44.4872 24.9958 47.8654 23.6105C44.0205 22.6918 44.5168 17.4319 40.2867 16.8985C42.6499 14.5945 39.6199 10.3939 40.9386 7.37132C37.753 8.38627 32.982 5.5785 30.5669 7.58616C30.3743 2.96334 24.8476 3.74122 23.8253 0C22.8622 3.87457 17.6319 3.48193 17.1133 7.801C14.5352 4.88952 10.4902 8.54184 7.14907 7.14907C7.49726 11.0014 5.2303 15.0093 7.801 17.3282C2.77814 17.0392 3.74863 22.8103 0 23.8253C3.55601 25.0403 2.96334 30.3743 7.801 30.3224C5.43774 32.6561 8.10475 36.6936 7.14907 40.0718C10.6754 39.331 14.35 42.1536 17.3282 40.0718C17.9653 44.1316 22.9807 43.776 24.0401 47.4357C24.781 43.6427 29.9668 44.2427 30.7521 40.5015C33.8562 42.2721 37.6345 39.4273 40.9312 40.0718C39.9163 37.0418 42.9685 32.2486 40.2867 30.3224ZM43.9909 21.4324C44.2798 21.8991 45.9318 23.6549 45.9392 23.8179C45.9392 24.3809 42.1684 29.263 41.1757 29.4482C39.694 29.7298 38.9532 29.0482 37.9234 28.7963C39.0717 25.9885 39.1384 20.9508 37.7086 18.4246C41.1831 16.7429 42.6573 19.321 43.9909 21.4546V21.4324ZM22.0917 37.4715C14.9945 36.6862 8.96412 30.2187 10.1791 21.4398C11.0162 15.3946 16.0243 11.0311 22.0917 10.1791C30.841 8.9493 37.8345 15.2909 37.9012 23.6105C37.9679 31.7596 31.2929 38.5235 22.0917 37.4715ZM39.6347 8.66037C39.8274 11.9571 41.635 16.8614 37.6863 17.3207C35.4194 14.6834 33.671 11.52 29.8853 10.3865C31.1151 6.34897 35.8268 8.1492 39.6347 8.66037ZM23.8253 1.9484C25.4255 3.81531 28.2703 4.44502 29.6705 6.49713C29.7843 7.69118 29.5583 8.89308 29.0186 9.96425C26.3515 8.66778 21.3509 8.91226 18.6468 9.96425C16.5725 5.12659 22.1806 4.49688 23.8253 1.9484ZM8.23069 8.44553C11.3052 8.23069 16.8762 6.15635 17.7801 10.3717C14.6326 11.8428 12.1021 14.3733 10.631 17.5208C6.28229 17.1133 7.48244 12.0238 8.23069 8.44553ZM1.9484 23.6105C4.29685 21.588 4.79321 16.6836 10.1791 18.4246C8.89744 21.3879 8.97153 25.5959 9.96425 28.7963C5.35625 31.0781 3.74863 26.1367 1.9484 23.6105ZM15.8094 39.857C12.6757 40.1755 11.0459 38.9902 8.23069 38.9902C8.33441 35.6787 6.35637 30.7966 10.1791 29.6779C12.1127 32.7227 14.2092 35.6046 17.7578 37.0418C17.4864 38.1922 16.7905 39.1977 15.8094 39.857ZM29.6705 41.1535C28.4259 43.0796 25.4329 43.2648 24.255 45.2651C21.9288 43.3167 16.7429 42.2277 18.6246 37.4715C21.6324 38.7235 25.7663 38.6346 28.9963 37.6863C29.5945 38.7369 29.824 39.9574 29.6483 41.1535H29.6705ZM39.4199 39.2051C35.7157 39.2569 30.8484 42.0795 30.1076 37.4715C33.0709 35.4342 35.9231 33.3228 37.4715 29.8927C41.7313 30.8855 40.5237 35.5972 39.4199 39.2051ZM35.2564 34.76C35.161 34.8553 35.0959 34.9767 35.0695 35.109C35.0432 35.2412 35.0566 35.3783 35.1081 35.5029C35.1597 35.6275 35.2471 35.7341 35.3592 35.809C35.4713 35.8839 35.6031 35.9239 35.7379 35.9239C35.8728 35.9239 36.0046 35.8839 36.1167 35.809C36.2288 35.7341 36.3162 35.6275 36.3677 35.5029C36.4193 35.3783 36.4327 35.2412 36.4063 35.109C36.3799 34.9767 36.3149 34.8553 36.2195 34.76C36.0927 34.6315 35.92 34.5585 35.7395 34.5571C35.5589 34.5557 35.3852 34.626 35.2564 34.7526V34.76ZM7.23797 22.7511C7.10317 22.7511 6.97139 22.7911 6.85931 22.8659C6.74723 22.9408 6.65987 23.0473 6.60828 23.1718C6.55669 23.2964 6.5432 23.4334 6.5695 23.5656C6.59579 23.6978 6.66071 23.8193 6.75603 23.9146C6.85135 24.0099 6.97279 24.0748 7.105 24.1011C7.23721 24.1274 7.37425 24.1139 7.49879 24.0623C7.62333 24.0107 7.72978 23.9234 7.80467 23.8113C7.87957 23.6992 7.91954 23.5674 7.91954 23.4326C7.91954 23.2519 7.84773 23.0785 7.71991 22.9507C7.59209 22.8229 7.41873 22.7511 7.23797 22.7511ZM44.1835 31.8189C44.2486 31.6617 44.2656 31.4887 44.2323 31.3218C44.199 31.155 44.1169 31.0017 43.9964 30.8816C43.876 30.7614 43.7225 30.6797 43.5556 30.6468C43.3886 30.6139 43.2157 30.6314 43.0586 30.6969C42.9016 30.7624 42.7675 30.8731 42.6735 31.0149C42.5794 31.1566 42.5295 31.3232 42.5302 31.4933C42.5308 31.6635 42.582 31.8296 42.6772 31.9707C42.7724 32.1117 42.9073 32.2213 43.0648 32.2856C43.2751 32.3715 43.5108 32.3706 43.7204 32.2831C43.9301 32.1956 44.0965 32.0288 44.1835 31.8189ZM11.6459 34.7823C11.5505 34.8775 11.4855 34.999 11.4591 35.1312C11.4327 35.2635 11.4461 35.4006 11.4977 35.5252C11.5492 35.6498 11.6366 35.7563 11.7487 35.8312C11.8608 35.9062 11.9926 35.9462 12.1275 35.9462C12.2623 35.9462 12.3942 35.9062 12.5063 35.8312C12.6184 35.7563 12.7057 35.6498 12.7573 35.5252C12.8088 35.4006 12.8223 35.2635 12.7959 35.1312C12.7695 34.999 12.7045 34.8775 12.609 34.7823C12.4812 34.6547 12.3081 34.583 12.1275 34.583C11.9469 34.583 11.7737 34.6547 11.6459 34.7823ZM28.0258 13.5573C28.1084 13.5913 28.1991 13.6001 28.2866 13.5826C28.3742 13.5652 28.4545 13.5221 28.5176 13.459C28.5808 13.3959 28.6238 13.3155 28.6412 13.228C28.6587 13.1404 28.6499 13.0497 28.6158 12.9672C28.5818 12.8847 28.5241 12.8141 28.45 12.7643C28.3759 12.7146 28.2887 12.6879 28.1994 12.6876C28.1102 12.6873 28.0228 12.7135 27.9484 12.7628C27.874 12.8121 27.8159 12.8823 27.7814 12.9646C27.7583 13.0196 27.7463 13.0785 27.7462 13.1381C27.746 13.1977 27.7576 13.2567 27.7803 13.3118C27.803 13.3669 27.8364 13.417 27.8785 13.4591C27.9207 13.5012 27.9707 13.5346 28.0258 13.5573ZM23.892 31.2707C23.826 31.2707 23.7616 31.2902 23.7068 31.3269C23.6519 31.3635 23.6092 31.4156 23.584 31.4765C23.5587 31.5374 23.5521 31.6044 23.565 31.6691C23.5779 31.7338 23.6096 31.7932 23.6562 31.8398C23.7029 31.8864 23.7623 31.9182 23.8269 31.931C23.8916 31.9439 23.9586 31.9373 24.0195 31.9121C24.0805 31.8868 24.1325 31.8441 24.1692 31.7893C24.2058 31.7345 24.2253 31.67 24.2253 31.6041C24.2253 31.5157 24.1902 31.4309 24.1277 31.3683C24.0652 31.3058 23.9804 31.2707 23.892 31.2707ZM19.847 33.3006C19.7645 33.2666 19.6737 33.2578 19.5862 33.2752C19.4987 33.2927 19.4183 33.3358 19.3552 33.3989C19.2921 33.462 19.2491 33.5424 19.2316 33.6299C19.2141 33.7175 19.223 33.8082 19.257 33.8907C19.291 33.9732 19.3488 34.0438 19.4229 34.0936C19.497 34.1433 19.5841 34.17 19.6734 34.1703C19.7627 34.1706 19.85 34.1444 19.9244 34.0951C19.9988 34.0458 20.0569 33.9756 20.0915 33.8933C20.1145 33.8383 20.1265 33.7794 20.1267 33.7198C20.1269 33.6602 20.1153 33.6011 20.0925 33.5461C20.0698 33.491 20.0364 33.4409 19.9943 33.3988C19.9521 33.3567 19.9021 33.3233 19.847 33.3006ZM27.9962 33.3006C27.9139 33.3351 27.8437 33.3933 27.7944 33.4677C27.7451 33.5421 27.7189 33.6294 27.7192 33.7187C27.7194 33.8079 27.7461 33.8951 27.7959 33.9692C27.8456 34.0433 27.9162 34.101 27.9987 34.1351C28.0812 34.1691 28.172 34.1779 28.2595 34.1605C28.3471 34.143 28.4275 34.1 28.4906 34.0369C28.5537 33.9738 28.5967 33.8934 28.6142 33.8059C28.6317 33.7183 28.6229 33.6276 28.5889 33.5451C28.543 33.4409 28.4596 33.3579 28.3552 33.3126C28.2509 33.2672 28.1332 33.263 28.0258 33.3006H27.9962ZM13.4684 27.2702C13.3861 27.3047 13.3159 27.3629 13.2666 27.4373C13.2173 27.5117 13.1911 27.599 13.1914 27.6883C13.1916 27.7775 13.2183 27.8647 13.2681 27.9388C13.3178 28.0129 13.3884 28.0706 13.4709 28.1047C13.5535 28.1387 13.6442 28.1475 13.7317 28.1301C13.8193 28.1126 13.8997 28.0696 13.9628 28.0065C14.0259 27.9434 14.0689 27.863 14.0864 27.7755C14.1039 27.6879 14.0951 27.5972 14.0611 27.5147C14.0384 27.4596 14.005 27.4095 13.9629 27.3674C13.9207 27.3252 13.8707 27.2918 13.8156 27.2691C13.7605 27.2464 13.7015 27.2348 13.6419 27.235C13.5823 27.2352 13.5233 27.2471 13.4684 27.2702ZM17.9134 28.9371C17.8672 28.9838 17.8358 29.0432 17.8232 29.1078C17.8107 29.1724 17.8175 29.2392 17.8428 29.2999C17.8682 29.3606 17.9109 29.4124 17.9657 29.4489C18.0204 29.4854 18.0847 29.5048 18.1505 29.5048C18.2163 29.5048 18.2806 29.4854 18.3353 29.4489C18.39 29.4124 18.4328 29.3606 18.4581 29.2999C18.4835 29.2392 18.4903 29.1724 18.4777 29.1078C18.4652 29.0432 18.4338 28.9838 18.3876 28.9371C18.3565 28.9057 18.3196 28.8808 18.2789 28.8638C18.2382 28.8468 18.1946 28.8381 18.1505 28.8381C18.1064 28.8381 18.0627 28.8468 18.022 28.8638C17.9813 28.8808 17.9444 28.9057 17.9134 28.9371ZM19.847 13.5573C19.93 13.522 20.0005 13.4627 20.0495 13.387C20.0984 13.3113 20.1237 13.2227 20.1219 13.1326C20.1201 13.0424 20.0914 12.9549 20.0395 12.8812C19.9876 12.8075 19.9148 12.751 19.8305 12.719C19.7462 12.687 19.6543 12.6809 19.5665 12.7016C19.4788 12.7222 19.3992 12.7687 19.338 12.8349C19.2769 12.9012 19.2369 12.9842 19.2233 13.0733C19.2097 13.1624 19.2231 13.2536 19.2617 13.3351C19.2844 13.3901 19.3178 13.4402 19.36 13.4823C19.4021 13.5245 19.4521 13.5579 19.5072 13.5806C19.5623 13.6033 19.6213 13.6149 19.6809 13.6147C19.7405 13.6145 19.7995 13.6026 19.8544 13.5795L19.847 13.5573ZM13.4684 19.5877C13.5509 19.6217 13.6417 19.6305 13.7292 19.6131C13.8167 19.5956 13.8971 19.5525 13.9602 19.4894C14.0233 19.4263 14.0663 19.3459 14.0838 19.2584C14.1013 19.1708 14.0924 19.0801 14.0584 18.9976C14.0244 18.9151 13.9666 18.8445 13.8925 18.7947C13.8184 18.745 13.7313 18.7183 13.642 18.718C13.5527 18.7177 13.4654 18.7439 13.391 18.7932C13.3166 18.8425 13.2585 18.9127 13.2239 18.995C13.2009 19.05 13.1889 19.1089 13.1887 19.1685C13.1885 19.2281 13.2001 19.2871 13.2229 19.3422C13.2456 19.3973 13.279 19.4474 13.3211 19.4895C13.3633 19.5316 13.4133 19.565 13.4684 19.5877ZM34.397 27.2702C34.3145 27.2362 34.2238 27.2273 34.1362 27.2448C34.0487 27.2623 33.9683 27.3053 33.9052 27.3685C33.8421 27.4316 33.7991 27.512 33.7816 27.5995C33.7642 27.6871 33.773 27.7778 33.807 27.8603C33.8411 27.9428 33.8988 28.0134 33.9729 28.0632C34.047 28.1129 34.1342 28.1396 34.2234 28.1399C34.3127 28.1402 34.4 28.114 34.4744 28.0647C34.5488 28.0154 34.607 27.9452 34.6415 27.8629C34.6646 27.8079 34.6765 27.7489 34.6767 27.6894C34.6769 27.6298 34.6653 27.5707 34.6426 27.5157C34.6198 27.4606 34.5864 27.4105 34.5443 27.3684C34.5022 27.3263 34.4521 27.2929 34.397 27.2702ZM15.7576 23.0474C15.6916 23.0474 15.6272 23.067 15.5724 23.1036C15.5175 23.1402 15.4748 23.1923 15.4496 23.2532C15.4244 23.3141 15.4178 23.3812 15.4306 23.4458C15.4435 23.5105 15.4752 23.5699 15.5219 23.6165C15.5685 23.6631 15.6279 23.6949 15.6925 23.7078C15.7572 23.7206 15.8242 23.714 15.8852 23.6888C15.9461 23.6636 15.9981 23.6208 16.0348 23.566C16.0714 23.5112 16.091 23.4467 16.091 23.3808C16.091 23.2924 16.0558 23.2076 15.9933 23.1451C15.9308 23.0825 15.846 23.0474 15.7576 23.0474ZM18.4172 17.8616C18.4634 17.8148 18.4948 17.7554 18.5074 17.6908C18.5199 17.6263 18.5131 17.5594 18.4878 17.4987C18.4624 17.438 18.4197 17.3862 18.3649 17.3497C18.3102 17.3133 18.2459 17.2938 18.1801 17.2938C18.1143 17.2938 18.05 17.3133 17.9953 17.3497C17.9406 17.3862 17.8978 17.438 17.8725 17.4987C17.8471 17.5594 17.8403 17.6263 17.8529 17.6908C17.8654 17.7554 17.8968 17.8148 17.9431 17.8616C17.9741 17.8929 18.011 17.9178 18.0517 17.9348C18.0924 17.9518 18.136 17.9605 18.1801 17.9605C18.2242 17.9605 18.2679 17.9518 18.3086 17.9348C18.3493 17.9178 18.3862 17.8929 18.4172 17.8616ZM29.9816 17.9282C30.0279 17.8815 30.0593 17.8221 30.0718 17.7575C30.0844 17.6929 30.0775 17.6261 30.0522 17.5654C30.0269 17.5047 29.9841 17.4529 29.9294 17.4164C29.8747 17.3799 29.8103 17.3605 29.7446 17.3605C29.6788 17.3605 29.6145 17.3799 29.5597 17.4164C29.505 17.4529 29.4623 17.5047 29.4369 17.5654C29.4116 17.6261 29.4048 17.6929 29.4173 17.7575C29.4299 17.8221 29.4613 17.8815 29.5075 17.9282C29.5391 17.9603 29.5769 17.9855 29.6185 18.0026C29.6602 18.0196 29.7049 18.028 29.7499 18.0273C29.7949 18.0266 29.8392 18.0169 29.8803 17.9986C29.9215 17.9802 29.9584 17.9538 29.989 17.9208L29.9816 17.9282ZM23.9809 15.5576C24.0468 15.5576 24.1113 15.538 24.1661 15.5014C24.2209 15.4647 24.2636 15.4127 24.2889 15.3518C24.3141 15.2908 24.3207 15.2238 24.3078 15.1591C24.295 15.0945 24.2632 15.0351 24.2166 14.9885C24.17 14.9418 24.1106 14.9101 24.0459 14.8972C23.9812 14.8843 23.9142 14.891 23.8533 14.9162C23.7924 14.9414 23.7403 14.9841 23.7037 15.039C23.667 15.0938 23.6475 15.1582 23.6475 15.2242C23.6475 15.3126 23.6826 15.3974 23.7451 15.4599C23.8077 15.5224 23.8924 15.5576 23.9809 15.5576Z" />
</svg>
