<?xml version="1.0" encoding="utf-8"?><svg width="28" height="28" xmlns="http://www.w3.org/2000/svg" viewBox="0 0 28 28"><rect width="28" height="28" rx="14"/><path d="M17.699 7.003L15.779 7c-2.155 0-3.548 1.352-3.548 3.445v1.589h-1.93a.294.294 0 00-.301.286v2.301c0 .158.135.286.302.286h1.929v5.808c0 .157.135.285.302.285h2.517a.294.294 0 00.302-.285v-5.808h2.256a.294.294 0 00.301-.286l.001-2.301a.278.278 0 00-.088-.202.31.31 0 00-.214-.084h-2.256v-1.347c0-.647.163-.975 1.054-.975h1.292A.294.294 0 0018 9.425V7.288a.294.294 0 00-.301-.285z"/><rect width="28" height="28" rx="14"/><path fill="#fff" d="M17.699 7.003L15.779 7c-2.155 0-3.548 1.352-3.548 3.445v1.589h-1.93a.294.294 0 00-.301.286v2.301c0 .158.135.286.302.286h1.929v5.808c0 .157.135.285.302.285h2.517a.294.294 0 00.302-.285v-5.808h2.256a.294.294 0 00.301-.286l.001-2.301a.278.278 0 00-.088-.202.31.31 0 00-.214-.084h-2.256v-1.347c0-.647.163-.975 1.054-.975h1.292A.294.294 0 0018 9.425V7.288a.294.294 0 00-.301-.285z"/></svg>