<?xml version="1.0" encoding="utf-8"?><svg width="28" height="28" xmlns="http://www.w3.org/2000/svg" viewBox="0 0 28 28"><rect width="28" height="28" rx="14"/><path d="M14 11c-1.654 0-3 1.346-3 3s1.346 3 3 3 3-1.346 3-3-1.346-3-3-3z" fill="#fff"/><path d="M18.95 7h-9.9C7.92 7 7 7.92 7 9.05v9.9C7 20.08 7.92 21 9.05 21h9.9c1.13 0 2.05-.92 2.05-2.05v-9.9C21 7.92 20.08 7 18.95 7zm-4.923 10.664a3.696 3.696 0 01-3.691-3.691 3.696 3.696 0 013.691-3.692 3.696 3.696 0 013.692 3.692 3.696 3.696 0 01-3.692 3.691zm4.102-6.562c-.679 0-1.23-.552-1.23-1.23 0-.68.551-1.231 1.23-1.231.678 0 1.23.552 1.23 1.23 0 .679-.552 1.23-1.23 1.23z" fill="#fff"/><path d="M18.95 7h-9.9C7.92 7 7 7.92 7 9.05v9.9C7 20.08 7.92 21 9.05 21h9.9c1.13 0 2.05-.92 2.05-2.05v-9.9C21 7.92 20.08 7 18.95 7zm-4.923 10.664a3.696 3.696 0 01-3.691-3.691 3.696 3.696 0 013.691-3.692 3.696 3.696 0 013.692 3.692 3.696 3.696 0 01-3.692 3.691zm4.102-6.562c-.679 0-1.23-.552-1.23-1.23 0-.68.551-1.231 1.23-1.231.678 0 1.23.552 1.23 1.23 0 .679-.552 1.23-1.23 1.23z" fill="#fff"/><rect width="28" height="28" rx="14"/><path d="M14 11c-1.654 0-3 1.346-3 3s1.346 3 3 3 3-1.346 3-3-1.346-3-3-3z" fill="#fff"/><path d="M18.95 7h-9.9C7.92 7 7 7.92 7 9.05v9.9C7 20.08 7.92 21 9.05 21h9.9c1.13 0 2.05-.92 2.05-2.05v-9.9C21 7.92 20.08 7 18.95 7zm-4.923 10.664a3.696 3.696 0 01-3.691-3.691 3.696 3.696 0 013.691-3.692 3.696 3.696 0 013.692 3.692 3.696 3.696 0 01-3.692 3.691zm4.102-6.562c-.679 0-1.23-.552-1.23-1.23 0-.68.551-1.231 1.23-1.231.678 0 1.23.552 1.23 1.23 0 .679-.552 1.23-1.23 1.23z" fill="#fff"/><path d="M18.95 7h-9.9C7.92 7 7 7.92 7 9.05v9.9C7 20.08 7.92 21 9.05 21h9.9c1.13 0 2.05-.92 2.05-2.05v-9.9C21 7.92 20.08 7 18.95 7zm-4.923 10.664a3.696 3.696 0 01-3.691-3.691 3.696 3.696 0 013.691-3.692 3.696 3.696 0 013.692 3.692 3.696 3.696 0 01-3.692 3.691zm4.102-6.562c-.679 0-1.23-.552-1.23-1.23 0-.68.551-1.231 1.23-1.231.678 0 1.23.552 1.23 1.23 0 .679-.552 1.23-1.23 1.23z" fill="#fff"/></svg>