<?xml version="1.0" encoding="utf-8"?><svg width="230" height="48" xmlns="http://www.w3.org/2000/svg" viewBox="0 0 230 48"><path d="M224.287 38.664h-.511v1.297h-.741v.422h.741v2.437c-.021.312-.003.626.052.934.096.415.511.489.882.489.15.012.301.012.452 0v-.445h-.341c-.556 0-.541-.281-.541-.74v-2.675h.874v-.422h-.874v-1.297h.007zm-7.964 4.72v-2.312c0-.8-.6-1.222-1.563-1.222s-1.667.518-1.711 1.43h.496a1.007 1.007 0 01.725-.974c.14-.04.287-.05.431-.027.674 0 1.104.215 1.104.919 0 .215-.045.333-.148.407-.394.156-.814.231-1.238.223-1.052.11-1.578.533-1.578 1.31 0 .779.519 1.186 1.386 1.186a1.778 1.778 0 001.6-.852c0 .386.052.741.556.741.141.004.282-.019.415-.067v-.363a.605.605 0 01-.2 0c-.275.03-.275-.148-.275-.4zm-.511-.793a1.32 1.32 0 01-.44.965 1.328 1.328 0 01-1.004.339c-.593 0-.971-.312-.971-.808 0-.696.741-.815 1.267-.889.526-.074.993-.118 1.156-.296v.696l-.008-.007zm-6.156-2.741c-1.141 0-1.941.94-1.941 2.289 0 1.348.741 2.222 1.948 2.222a1.748 1.748 0 001.815-1.533h-.503a1.257 1.257 0 01-1.297 1.111c-1.022 0-1.437-.822-1.437-1.719h3.274v-.148c0-1.17-.615-2.222-1.867-2.222h.008zm-1.415 1.94c.096-.792.474-1.481 1.393-1.481.792 0 1.304.57 1.363 1.482h-2.756zm20.188 1.038c-.074.2-.126.378-.26.807-.163-.503-.103-.363-.251-.74l-1.149-2.92h-.57l1.711 4.209c-.267.703-.4 1.207-.911 1.207a1.286 1.286 0 01-.371-.06v.453c.15.024.301.037.452.037.682 0 .882-.46 1.252-1.482l1.667-4.4h-.526l-1.052 2.867.008.022zm-40.005.555v-2.311c0-.8-.601-1.222-1.564-1.222-.963 0-1.667.518-1.711 1.43h.496a1.007 1.007 0 01.725-.974c.14-.04.287-.05.431-.027.674 0 1.104.215 1.104.919 0 .215-.044.333-.148.407-.394.156-.814.231-1.237.223-1.052.11-1.578.533-1.578 1.31 0 .779.518 1.186 1.385 1.186a1.778 1.778 0 001.6-.852c0 .386.052.741.556.741.141.004.282-.019.415-.067v-.363a.605.605 0 01-.2 0c-.289 0-.282-.17-.282-.43l.008.03zm-.512-.792a1.333 1.333 0 01-.442.962 1.333 1.333 0 01-1.002.342c-.593 0-.971-.312-.971-.808 0-.696.741-.815 1.267-.889.526-.074.993-.118 1.156-.296v.696l-.008-.007zm33.205-.282c.024.192.009.387-.045.572a1.395 1.395 0 01-1.281.998c-.815 0-1.075-.48-1.075-1.31V39.96h-.518v2.822a1.37 1.37 0 00.368 1.13 1.363 1.363 0 001.113.411 1.548 1.548 0 001.482-.911v.785h.482v-4.237h-.512v2.34l-.014.008zm-23.781-.704h-.489c-.018.33-.085.654-.2.963l-1.237-1.526a1.952 1.952 0 001.155-1.54 1.174 1.174 0 00-.388-.86 1.191 1.191 0 00-.893-.304 1.2 1.2 0 00-1.319 1.178c.084.543.344 1.043.741 1.423a2.217 2.217 0 00-1.482 1.792 1.603 1.603 0 00.528 1.183 1.602 1.602 0 001.228.41 1.928 1.928 0 001.719-.933l.666.815h.66l-1.037-1.238c.209-.422.33-.884.355-1.355l-.007-.008zm-2.882-2.096a.74.74 0 01.815-.74.742.742 0 01.8.74c0 .555-.504.926-.941 1.17-.237-.355-.667-.674-.667-1.17h-.007zm.578 4.386a1.218 1.218 0 01-.885-.319 1.23 1.23 0 01-.397-.852c0-.74.667-1.104 1.215-1.482l1.445 1.77a1.622 1.622 0 01-1.378.853v.03zm9.438-4.06a1.564 1.564 0 00-1.482.933v-2.437h-.503v5.875h.466v-.823a1.482 1.482 0 001.519.949c1.178 0 1.926-.867 1.926-2.223 0-1.356-.8-2.274-1.926-2.274zm-.067 4.082c-.889 0-1.481-.741-1.481-1.823 0-1.081.563-1.815 1.481-1.815.919 0 1.445.704 1.445 1.815 0 1.112-.637 1.815-1.474 1.815l.029.008zm-27.937-2.134c-.8-.178-1.215-.274-1.215-.8s.378-.704.993-.704 1.097.282 1.148.926h.504c0-.91-.666-1.355-1.6-1.355-.933 0-1.563.451-1.563 1.192 0 .934.941 1.045 1.637 1.208.445.111 1.163.237 1.163.837s-.474.822-1.215.822c-.741 0-1.252-.377-1.252-1.089h-.504c0 .97.652 1.519 1.741 1.519s1.682-.526 1.682-1.304-.881-1.096-1.578-1.252h.059zm5.186-1.94a1.563 1.563 0 00-1.533.903v-.815h-.467v5.83h.504v-2.37a1.556 1.556 0 001.481.918c1.141 0 1.897-.889 1.897-2.222 0-1.334-.741-2.26-1.911-2.26l.029.015zm-.052 4.059c-.889 0-1.481-.696-1.481-1.808 0-1.11.548-1.822 1.437-1.822s1.482.74 1.482 1.83c0 1.089-.571 1.8-1.438 1.8zm21.188-14.269h2.867V8.513l-2.881-.468.014 21.588zm24.085-13.409a5.561 5.561 0 00-4.082-1.689h-4.327v1.445h4.327a2.444 2.444 0 012.045 1.267c.314.474.54 1 .666 1.555a5.778 5.778 0 00-8.475 5.105 5.77 5.77 0 005.768 5.767 5.769 5.769 0 005.767-5.767v-3.608a5.557 5.557 0 00-1.689-4.082v.007zm-2.037 10.735a2.276 2.276 0 01-4.082 0 5.384 5.384 0 01-.845-3.052 5.39 5.39 0 01.859-3.06 2.276 2.276 0 014.082 0c.582.91.876 1.973.845 3.052a5.378 5.378 0 01-.867 3.06h.008zm-39.191-12.424h-4.326v1.445h4.326a2.44 2.44 0 012.045 1.267c.314.474.54 1 .667 1.555a5.778 5.778 0 00-8.475 5.105 5.765 5.765 0 005.767 5.767 5.765 5.765 0 005.768-5.767v-3.608a5.772 5.772 0 00-1.686-4.078 5.772 5.772 0 00-4.078-1.686h-.008zm2.038 12.424a2.276 2.276 0 01-4.082 0 5.384 5.384 0 01-.845-3.052 5.385 5.385 0 01.845-3.052 2.27 2.27 0 012.041-1.271 2.274 2.274 0 012.041 1.27c.581.91.875 1.974.844 3.053a5.38 5.38 0 01-.852 3.052h.008zM60.081 24.374l-2.882-.467v1.8h2.882v-1.334zm85.522 5.26v-9.335a5.756 5.756 0 00-9.831-4.082l-.259.26-.244-.26a5.775 5.775 0 00-6.285-1.244 5.77 5.77 0 00-3.561 5.326v9.334h2.882V20.3a5.383 5.383 0 01.844-3.052 2.276 2.276 0 014.082 0 5.39 5.39 0 01.86 3.052v9.334h2.881V20.3a5.39 5.39 0 01.823-3.052 2.27 2.27 0 012.041-1.271 2.275 2.275 0 012.041 1.27c.581.91.875 1.974.844 3.053v9.334h2.882zm22.899-9.335a5.775 5.775 0 00-8.645-5V8.044l-2.882.467v15.395a5.77 5.77 0 005.767 5.767 5.77 5.77 0 005.768-5.767v-3.608h-.008zm-2.881 3.6a5.392 5.392 0 01-.845 3.053 2.273 2.273 0 01-3.236.921 2.28 2.28 0 01-.839-.921 5.384 5.384 0 01-.844-3.053v-3.6a5.383 5.383 0 01.844-3.052 2.28 2.28 0 012.038-1.264 2.274 2.274 0 012.037 1.264c.581.91.875 1.973.845 3.052v3.6zm-57.326-9.364h-4.327v1.445h4.327a2.447 2.447 0 012.044 1.267 4.73 4.73 0 01.667 1.555 5.778 5.778 0 00-8.475 5.105 5.77 5.77 0 005.767 5.767 5.77 5.77 0 005.768-5.767v-3.608a5.762 5.762 0 00-3.557-5.327c-.7-.29-1.45-.438-2.207-.437h-.007zm2.037 12.424a2.276 2.276 0 01-4.082 0 5.409 5.409 0 01-.845-3.052 5.41 5.41 0 01.845-3.052 2.27 2.27 0 012.041-1.271 2.274 2.274 0 012.041 1.27c.581.91.875 1.974.845 3.053a5.393 5.393 0 01-.845 3.052zM85.395 14.535a5.534 5.534 0 00-2.881.741v-7.23l-2.882.466v21.121h2.882V20.3a5.393 5.393 0 01.844-3.052 2.274 2.274 0 014.082 0c.58.91.875 1.973.845 3.052v9.334h2.837V20.3a5.764 5.764 0 00-5.764-5.764h.037zm-22.425 0c-3.185 0-5.763 1.875-5.763 4.193 0 2.32 2.578 4.194 5.756 4.194a2.66 2.66 0 11-2.867 2.785h-2.882c.163 2.223 2.675 3.963 5.749 3.963s5.764-1.874 5.764-4.193c0-2.319-2.579-4.193-5.757-4.193a2.778 2.778 0 01-2.874-2.652 2.889 2.889 0 015.734-.111v1.333l2.882.467v-1.8c-.17-2.223-2.675-3.964-5.75-3.964l.008-.022zM16.669 43.213a.86.86 0 10-1.607-.612.86.86 0 001.607.612zm23.966-19.106a.681.681 0 100-1.363.681.681 0 000 1.363zM31.663 4.764a.86.86 0 10.658-1.588.86.86 0 00-.658 1.588zM4.15 16.165a.859.859 0 10.69-1.572.859.859 0 00-.69 1.572zm28.174 27.544a.86.86 0 10-.65-1.592.86.86 0 00.65 1.592zM16.203 4.764a.86.86 0 10-.65-1.592.86.86 0 00.65 1.592zm27.506 11.401a.86.86 0 10-.65-1.592.86.86 0 00.65 1.592zM4.808 32.278a.86.86 0 10-1.104-.46.86.86 0 001.119.468l-.015-.008zm27.307-9.134a.334.334 0 100 .667.334.334 0 000-.667zm1.69-3.8a.452.452 0 10.833-.35.452.452 0 00-.834.35zm2.414-7.239a.682.682 0 10-.964-.965.682.682 0 00.964.965zM23.936 7.408a.682.682 0 100-1.363.682.682 0 000 1.363zm-11.342 4.697a.682.682 0 10-.964-.965.682.682 0 00.964.965zm16.854 16.906a.333.333 0 10.474.469.333.333 0 00-.474-.469zm2.608-8.683c1.17-1.148-.333-3.23.326-4.733-1.578.503-3.949-.89-5.186.11-.081-2.281-2.83-1.903-3.334-3.763-.474 1.926-3.074 1.726-3.333 3.875-1.282-1.482-3.29.378-4.95-.326.171 1.911-.955 3.904.327 5.052-2.497-.126-2.008 2.72-3.875 3.23 1.763.6 1.482 3.268 3.875 3.23-1.17 1.156.148 3.164-.326 4.838 1.748-.385 3.578 1.03 5.052 0 .319 2.015 2.808 1.852 3.334 3.66.378-1.882 2.963-1.585 3.334-3.445 1.54.882 3.415-.533 5.06-.215-.504-1.482 1.015-3.882-.326-4.838 2.319-.044 2.089-2.644 3.763-3.333-1.911-.46-1.66-3.067-3.763-3.334l.022-.008zm-.326-4.089c.096 1.637.993 4.075-.97 4.304-1.127-1.281-1.986-2.881-3.868-3.444.593-2.008 2.949-1.104 4.845-.86h-.007zm-7.853-3.334c.793.926 2.223 1.238 2.904 2.223a3.164 3.164 0 01-.326 1.719c-1.326-.645-3.808-.526-5.186 0-1.022-2.4 1.764-2.712 2.579-3.979l.03.037zm-7.742 3.23c1.526-.11 4.29-1.14 4.734.97a7.349 7.349 0 00-3.548 3.55c-2.149-.215-1.556-2.742-1.186-4.52zm-3.119 7.527c1.164-1 1.415-3.437 4.09-2.578a8.075 8.075 0 00-.111 5.186c-2.29 1.134-3.09-1.319-3.979-2.578v-.03zM19.9 31.73c-1.556.156-2.363-.43-3.764-.43.052-1.644-.933-4.067.97-4.623.964 1.482 2.001 2.964 3.764 3.66a2.327 2.327 0 01-.97 1.4v-.007zm6.882.644c-.622.956-2.104 1.052-2.689 2.045-1.156-.97-3.704-1.481-2.793-3.874a8.35 8.35 0 005.186.11c.297.522.411 1.126.326 1.72h-.03zm-3.763-1.83a6.822 6.822 0 01-5.927-7.956 6.727 6.727 0 015.927-5.593 6.727 6.727 0 017.853 6.667 6.838 6.838 0 01-7.853 6.89v-.007zm8.608.867c-1.837 0-4.252 1.43-4.623-.859 1.482-1.008 2.89-2.06 3.66-3.763 2.112.489 1.512 2.844.963 4.622zm3.193-7.638c0 .282-1.874 2.704-2.363 2.8-.74.142-1.096-.2-1.615-.325.57-1.393.6-3.897-.111-5.186 1.726-.837 2.46.444 3.119 1.482.148.23.963 1.104.97 1.185v.044zM23.936 39.45a.681.681 0 100 1.362.681.681 0 000-1.362zm16.35-9.128c4.675-.088 4.201-5.326 7.58-6.712-3.846-.918-3.35-6.178-7.58-6.712 2.364-2.303-.666-6.504.653-9.527-3.186 1.015-7.957-1.793-10.372.215-.193-4.623-5.72-3.845-6.742-7.586-.963 3.875-6.193 3.482-6.712 7.801-2.578-2.911-6.623.74-9.964-.652.348 3.852-1.919 7.86.652 10.18-5.023-.29-4.052 5.481-7.801 6.496 3.556 1.215 2.963 6.55 7.801 6.497-2.363 2.334.304 6.372-.652 9.75 3.526-.741 7.201 2.082 10.18 0 .636 4.06 5.652 3.704 6.711 7.364.741-3.793 5.927-3.193 6.712-6.934 3.104 1.77 6.883-1.075 10.18-.43-1.016-3.03 2.036-7.823-.645-9.75zm3.705-8.89c.289.467 1.94 2.223 1.948 2.386 0 .563-3.77 5.445-4.763 5.63-1.482.282-2.223-.4-3.253-.652 1.149-2.808 1.215-7.845-.214-10.371 3.474-1.682 4.948.896 6.282 3.03v-.023zm-21.9 16.04c-7.097-.786-13.127-7.253-11.912-16.032.837-6.045 5.845-10.409 11.913-11.26 8.749-1.23 15.742 5.11 15.81 13.43.066 8.15-6.61 14.913-15.81 13.861zM39.636 8.66c.192 3.297 2 8.201-1.949 8.66-2.267-2.637-4.015-5.8-7.8-6.934 1.23-4.037 5.94-2.237 9.749-1.726zm-15.81-6.712c1.6 1.867 4.445 2.497 5.846 4.55a6.364 6.364 0 01-.652 3.466c-2.667-1.296-7.668-1.052-10.372 0-2.074-4.837 3.534-5.467 5.178-8.016zM8.231 8.446c3.074-.215 8.645-2.29 9.55 1.926a14.817 14.817 0 00-7.15 7.149c-4.349-.408-3.149-5.497-2.4-9.075zM1.948 23.61c2.349-2.022 2.845-6.926 8.231-5.185-1.282 2.963-1.207 7.17-.215 10.371-4.608 2.282-6.215-2.66-8.016-5.186zM15.81 39.858c-3.133.319-4.763-.867-7.578-.867.103-3.311-1.875-8.193 1.948-9.312 1.934 3.045 4.03 5.927 7.579 7.364a4.689 4.689 0 01-1.949 2.815zm13.862 1.297c-1.245 1.926-4.238 2.11-5.416 4.111-2.326-1.948-7.512-3.037-5.63-7.794 3.007 1.253 7.141 1.164 10.371.215a5.416 5.416 0 01.652 3.468h.023zm9.749-1.949c-3.704.052-8.572 2.875-9.312-1.733 2.963-2.038 5.815-4.15 7.363-7.58 4.26.994 3.053 5.705 1.949 9.313zm-4.164-4.445a.682.682 0 10.963 0 .682.682 0 00-.963-.007v.007zM7.238 22.751a.682.682 0 100 1.365.682.682 0 000-1.365zm36.946 9.068a.86.86 0 10-1.589-.658.86.86 0 001.589.658zm-32.538 2.963a.682.682 0 10.963.965.682.682 0 00-.963-.965zm16.38-21.225a.452.452 0 10.344-.836.452.452 0 00-.344.836zm-4.134 17.714a.333.333 0 100 .665.333.333 0 000-.665zm-4.045 2.03a.453.453 0 10-.345.837.453.453 0 00.345-.837zm8.15 0a.452.452 0 10.592.244.452.452 0 00-.563-.244h-.03zm-14.529-6.03a.452.452 0 10.35.832.452.452 0 00-.35-.833zm4.445 1.666a.334.334 0 10.475.47.334.334 0 00-.475-.47zm1.934-15.38a.452.452 0 10-.585-.222.451.451 0 00.592.244l-.007-.022zm-6.379 6.03a.453.453 0 10.345-.837.453.453 0 00-.345.838zm20.929 7.683a.452.452 0 10-.345.836.452.452 0 00.345-.836zm-18.64-4.223a.333.333 0 100 .667.333.333 0 000-.667zm2.66-5.185a.334.334 0 10-.475-.47.334.334 0 00.475.47zm11.565.066a.332.332 0 00-.053-.512.333.333 0 10.06.505l-.007.007zm-6.001-2.37a.334.334 0 100-.668.334.334 0 000 .668z"/></svg>