<?xml version="1.0" encoding="utf-8"?><svg width="28" height="28" xmlns="http://www.w3.org/2000/svg" viewBox="0 0 28 28"><rect width="28" height="28" rx="14"/><path d="M21.093 12.536C22.955 9.88 22.542 9.83 23 9h-3.57s-.253.928-.33 1.094c-.686 1.469-2.224 3.673-3.154 3.898-.915.222-.794-2.058-.737-3.045.053-.916.044-1.236.018-1.394a.515.515 0 00-.442-.43 12.473 12.473 0 00-2.206-.1l-.828.028c.326.77.547.533.667 1.423.136 1.042.082 3.576-.891 3.576-1.561 0-3.313-4.939-3.37-5.05H5l.289.762c2.329 6.141 5.241 8.986 9.226 9.222l.518.016.038-.53c.056-.82.446-2 1.138-2 1.022 0 1.318.314 1.992 1.192.648.842 1.095 1.338 2.141 1.338H23l-.379-.803c-.592-1.252-1.78-2.325-2.243-2.948-.168-.234-.333-.604-.162-1.053.14-.39.557-1.204.877-1.66z" fill="#fff"/><rect width="28" height="28" rx="14"/><path d="M21.093 12.536C22.955 9.88 22.542 9.83 23 9h-3.57s-.253.928-.33 1.094c-.686 1.469-2.224 3.673-3.154 3.898-.915.222-.794-2.058-.737-3.045.053-.916.044-1.236.018-1.394a.515.515 0 00-.442-.43 12.473 12.473 0 00-2.206-.1l-.828.028c.326.77.547.533.667 1.423.136 1.042.082 3.576-.891 3.576-1.561 0-3.313-4.939-3.37-5.05H5l.289.762c2.329 6.141 5.241 8.986 9.226 9.222l.518.016.038-.53c.056-.82.446-2 1.138-2 1.022 0 1.318.314 1.992 1.192.648.842 1.095 1.338 2.141 1.338H23l-.379-.803c-.592-1.252-1.78-2.325-2.243-2.948-.168-.234-.333-.604-.162-1.053.14-.39.557-1.204.877-1.66z" fill="#fff"/></svg>