<svg width="28" height="28" viewBox="0 0 28 28" xmlns="http://www.w3.org/2000/svg">
<rect width="28" height="28" rx="14" />
<path d="M14 11C12.346 11 11 12.346 11 14C11 15.654 12.346 17 14 17C15.654 17 17 15.654 17 14C17 12.346 15.654 11 14 11Z" fill="white"/>
<path d="M18.9492 7H9.05078C7.92007 7 7 7.92007 7 9.05078V18.9492C7 20.0799 7.92007 21 9.05078 21H18.9492C20.0799 21 21 20.0799 21 18.9492V9.05078C21 7.92007 20.0799 7 18.9492 7ZM14.0273 17.6641C11.9918 17.6641 10.3359 16.0082 10.3359 13.9727C10.3359 11.9371 11.9918 10.2812 14.0273 10.2812C16.0629 10.2812 17.7188 11.9371 17.7188 13.9727C17.7188 16.0082 16.0629 17.6641 14.0273 17.6641ZM18.1289 11.1016C17.4504 11.1016 16.8984 10.5496 16.8984 9.87109C16.8984 9.19263 17.4504 8.64062 18.1289 8.64062C18.8074 8.64062 19.3594 9.19263 19.3594 9.87109C19.3594 10.5496 18.8074 11.1016 18.1289 11.1016Z" fill="white"/>
<path d="M18.9492 7H9.05078C7.92007 7 7 7.92007 7 9.05078V18.9492C7 20.0799 7.92007 21 9.05078 21H18.9492C20.0799 21 21 20.0799 21 18.9492V9.05078C21 7.92007 20.0799 7 18.9492 7ZM14.0273 17.6641C11.9918 17.6641 10.3359 16.0082 10.3359 13.9727C10.3359 11.9371 11.9918 10.2812 14.0273 10.2812C16.0629 10.2812 17.7188 11.9371 17.7188 13.9727C17.7188 16.0082 16.0629 17.6641 14.0273 17.6641ZM18.1289 11.1016C17.4504 11.1016 16.8984 10.5496 16.8984 9.87109C16.8984 9.19263 17.4504 8.64062 18.1289 8.64062C18.8074 8.64062 19.3594 9.19263 19.3594 9.87109C19.3594 10.5496 18.8074 11.1016 18.1289 11.1016Z" fill="white"/>
<rect width="28" height="28" rx="14" />
<path d="M14 11C12.346 11 11 12.346 11 14C11 15.654 12.346 17 14 17C15.654 17 17 15.654 17 14C17 12.346 15.654 11 14 11Z" fill="white"/>
<path d="M18.9492 7H9.05078C7.92007 7 7 7.92007 7 9.05078V18.9492C7 20.0799 7.92007 21 9.05078 21H18.9492C20.0799 21 21 20.0799 21 18.9492V9.05078C21 7.92007 20.0799 7 18.9492 7ZM14.0273 17.6641C11.9918 17.6641 10.3359 16.0082 10.3359 13.9727C10.3359 11.9371 11.9918 10.2812 14.0273 10.2812C16.0629 10.2812 17.7188 11.9371 17.7188 13.9727C17.7188 16.0082 16.0629 17.6641 14.0273 17.6641ZM18.1289 11.1016C17.4504 11.1016 16.8984 10.5496 16.8984 9.87109C16.8984 9.19263 17.4504 8.64062 18.1289 8.64062C18.8074 8.64062 19.3594 9.19263 19.3594 9.87109C19.3594 10.5496 18.8074 11.1016 18.1289 11.1016Z" fill="white"/>
<path d="M18.9492 7H9.05078C7.92007 7 7 7.92007 7 9.05078V18.9492C7 20.0799 7.92007 21 9.05078 21H18.9492C20.0799 21 21 20.0799 21 18.9492V9.05078C21 7.92007 20.0799 7 18.9492 7ZM14.0273 17.6641C11.9918 17.6641 10.3359 16.0082 10.3359 13.9727C10.3359 11.9371 11.9918 10.2812 14.0273 10.2812C16.0629 10.2812 17.7188 11.9371 17.7188 13.9727C17.7188 16.0082 16.0629 17.6641 14.0273 17.6641ZM18.1289 11.1016C17.4504 11.1016 16.8984 10.5496 16.8984 9.87109C16.8984 9.19263 17.4504 8.64062 18.1289 8.64062C18.8074 8.64062 19.3594 9.19263 19.3594 9.87109C19.3594 10.5496 18.8074 11.1016 18.1289 11.1016Z" fill="white"/>
</svg>
