<svg width="28" height="28" viewBox="0 0 28 28" xmlns="http://www.w3.org/2000/svg">
<rect width="28" height="28" rx="14" />
<path d="M21.0925 12.5363C22.9551 9.87977 22.542 9.83001 23 9H19.4307C19.4307 9 19.177 9.92781 19.0996 10.0939C18.414 11.5628 16.8764 13.7668 15.9464 13.992C15.0307 14.214 15.1522 11.9342 15.2086 10.9466C15.2618 10.0312 15.2527 9.71094 15.2272 9.55281C15.1898 9.32176 15.0058 9.15321 14.785 9.12384C14.3297 9.06308 13.5037 8.97714 12.5786 9.02228L11.7511 9.05122C12.0774 9.82017 12.2978 9.58449 12.418 10.4741C12.5536 11.5156 12.5002 14.0499 11.5266 14.0499C9.96568 14.0499 8.21364 9.11126 8.15788 9H5L5.28894 9.76172C7.61763 15.9032 10.5301 18.7477 14.515 18.9842L15.0335 19L15.0706 18.4695C15.1266 17.6502 15.5168 16.4708 16.2088 16.4708C17.2312 16.4708 17.5266 16.7844 18.2009 17.6622C18.8492 18.5038 19.296 19 20.3421 19H23L22.621 18.197C22.0291 16.9452 20.8419 15.872 20.3783 15.2494C20.2103 15.015 20.045 14.6445 20.2161 14.1963C20.356 13.806 20.7727 12.9919 21.0925 12.5363Z" fill="white"/>
<rect width="28" height="28" rx="14" />
<path d="M21.0925 12.5363C22.9551 9.87977 22.542 9.83001 23 9H19.4307C19.4307 9 19.177 9.92781 19.0996 10.0939C18.414 11.5628 16.8764 13.7668 15.9464 13.992C15.0307 14.214 15.1522 11.9342 15.2086 10.9466C15.2618 10.0312 15.2527 9.71094 15.2272 9.55281C15.1898 9.32176 15.0058 9.15321 14.785 9.12384C14.3297 9.06308 13.5037 8.97714 12.5786 9.02228L11.7511 9.05122C12.0774 9.82017 12.2978 9.58449 12.418 10.4741C12.5536 11.5156 12.5002 14.0499 11.5266 14.0499C9.96568 14.0499 8.21364 9.11126 8.15788 9H5L5.28894 9.76172C7.61763 15.9032 10.5301 18.7477 14.515 18.9842L15.0335 19L15.0706 18.4695C15.1266 17.6502 15.5168 16.4708 16.2088 16.4708C17.2312 16.4708 17.5266 16.7844 18.2009 17.6622C18.8492 18.5038 19.296 19 20.3421 19H23L22.621 18.197C22.0291 16.9452 20.8419 15.872 20.3783 15.2494C20.2103 15.015 20.045 14.6445 20.2161 14.1963C20.356 13.806 20.7727 12.9919 21.0925 12.5363Z" fill="white"/>
</svg>
